<?xml version="1.0" encoding="UTF-8" standalone="no"?>
<!DOCTYPE svg PUBLIC "-//W3C//DTD SVG 1.1//EN"
 "http://www.w3.org/Graphics/SVG/1.1/DTD/svg11.dtd">
<!-- Generated by graphviz version 2.42.3 (20191010.1750)
 -->
<!-- Title: %3 Pages: 1 -->
<svg width="206pt" height="392pt"
 viewBox="0.00 0.00 206.00 392.00" xmlns="http://www.w3.org/2000/svg" xmlns:xlink="http://www.w3.org/1999/xlink">
<g id="graph0" class="graph" transform="scale(1 1) rotate(0) translate(4 388)">
<title>%3</title>
<polygon fill="white" stroke="transparent" points="-4,4 -4,-388 202,-388 202,4 -4,4"/>
<!-- 0 -->
<g id="node1" class="node">
<title>0</title>
<ellipse fill="none" stroke="black" cx="103" cy="-366" rx="27" ry="18"/>
<text text-anchor="middle" x="103" y="-362.3" font-family="Times,serif" font-size="14.00">0</text>
</g>
<!-- 1 -->
<g id="node2" class="node">
<title>1</title>
<ellipse fill="none" stroke="black" cx="27" cy="-192" rx="27" ry="18"/>
<text text-anchor="middle" x="27" y="-188.3" font-family="Times,serif" font-size="14.00">1</text>
</g>
<!-- 0&#45;&gt;1 -->
<g id="edge1" class="edge">
<title>0&#45;&gt;1</title>
<path fill="none" stroke="black" d="M86.96,-351.35C73.24,-338.71 54.15,-318.65 44,-297 32.57,-272.63 28.67,-241.91 27.41,-220.2"/>
<polygon fill="black" stroke="black" points="30.9,-219.88 26.98,-210.04 23.91,-220.18 30.9,-219.88"/>
<text text-anchor="middle" x="55.5" y="-275.3" font-family="Times,serif" font-size="14.00">7/7</text>
</g>
<!-- 2 -->
<g id="node3" class="node">
<title>2</title>
<ellipse fill="none" stroke="black" cx="171" cy="-192" rx="27" ry="18"/>
<text text-anchor="middle" x="171" y="-188.3" font-family="Times,serif" font-size="14.00">2</text>
</g>
<!-- 0&#45;&gt;2 -->
<g id="edge3" class="edge">
<title>0&#45;&gt;2</title>
<path fill="none" stroke="black" d="M123.38,-353.89C132.33,-347.97 142.12,-339.86 148,-330 168.16,-296.21 171.97,-249.84 172.08,-220.66"/>
<polygon fill="black" stroke="black" points="175.57,-220.33 171.96,-210.37 168.57,-220.41 175.57,-220.33"/>
<text text-anchor="middle" x="180.5" y="-275.3" font-family="Times,serif" font-size="14.00">8/8</text>
</g>
<!-- 3 -->
<g id="node4" class="node">
<title>3</title>
<ellipse fill="none" stroke="black" cx="103" cy="-279" rx="27" ry="18"/>
<text text-anchor="middle" x="103" y="-275.3" font-family="Times,serif" font-size="14.00">3</text>
</g>
<!-- 0&#45;&gt;3 -->
<g id="edge2" class="edge">
<title>0&#45;&gt;3</title>
<path fill="none" stroke="black" d="M103,-347.8C103,-336.16 103,-320.55 103,-307.24"/>
<polygon fill="black" stroke="black" points="106.5,-307.18 103,-297.18 99.5,-307.18 106.5,-307.18"/>
<text text-anchor="middle" x="123.5" y="-318.8" font-family="Times,serif" font-size="14.00">10/10</text>
</g>
<!-- 4 -->
<g id="node5" class="node">
<title>4</title>
<ellipse fill="none" stroke="black" cx="109" cy="-105" rx="27" ry="18"/>
<text text-anchor="middle" x="109" y="-101.3" font-family="Times,serif" font-size="14.00">4</text>
</g>
<!-- 1&#45;&gt;4 -->
<g id="edge5" class="edge">
<title>1&#45;&gt;4</title>
<path fill="none" stroke="black" d="M37.77,-175.39C45.17,-165.14 55.52,-151.7 66,-141 71.37,-135.52 77.57,-130.05 83.56,-125.13"/>
<polygon fill="black" stroke="black" points="85.86,-127.77 91.5,-118.8 81.49,-122.3 85.86,-127.77"/>
<text text-anchor="middle" x="77.5" y="-144.8" font-family="Times,serif" font-size="14.00">0/1</text>
</g>
<!-- 5 -->
<g id="node6" class="node">
<title>5</title>
<ellipse fill="none" stroke="black" cx="39" cy="-18" rx="27" ry="18"/>
<text text-anchor="middle" x="39" y="-14.3" font-family="Times,serif" font-size="14.00">5</text>
</g>
<!-- 1&#45;&gt;5 -->
<g id="edge4" class="edge">
<title>1&#45;&gt;5</title>
<path fill="none" stroke="black" d="M27.54,-173.68C28.26,-153.03 29.7,-117.46 32,-87 33.02,-73.54 34.51,-58.63 35.86,-46.2"/>
<polygon fill="black" stroke="black" points="39.36,-46.35 36.99,-36.02 32.4,-45.58 39.36,-46.35"/>
<text text-anchor="middle" x="52.5" y="-101.3" font-family="Times,serif" font-size="14.00">11/21</text>
</g>
<!-- 2&#45;&gt;4 -->
<g id="edge9" class="edge">
<title>2&#45;&gt;4</title>
<path fill="none" stroke="black" d="M159.63,-175.41C150.28,-162.59 136.88,-144.22 126.21,-129.6"/>
<polygon fill="black" stroke="black" points="129.02,-127.51 120.3,-121.49 123.37,-131.63 129.02,-127.51"/>
<text text-anchor="middle" x="159" y="-144.8" font-family="Times,serif" font-size="14.00">9/12</text>
</g>
<!-- 3&#45;&gt;1 -->
<g id="edge6" class="edge">
<title>3&#45;&gt;1</title>
<path fill="none" stroke="black" d="M83.74,-265.83C74.94,-259.67 64.77,-251.67 57,-243 50.42,-235.66 44.51,-226.67 39.71,-218.35"/>
<polygon fill="black" stroke="black" points="42.66,-216.44 34.78,-209.36 36.52,-219.81 42.66,-216.44"/>
<text text-anchor="middle" x="73" y="-231.8" font-family="Times,serif" font-size="14.00">4/11</text>
</g>
<!-- 3&#45;&gt;2 -->
<g id="edge7" class="edge">
<title>3&#45;&gt;2</title>
<path fill="none" stroke="black" d="M112.75,-262.18C119.21,-252.09 128.11,-238.9 137,-228 140.68,-223.49 144.84,-218.87 148.95,-214.54"/>
<polygon fill="black" stroke="black" points="151.71,-216.72 156.18,-207.12 146.7,-211.83 151.71,-216.72"/>
<text text-anchor="middle" x="148.5" y="-231.8" font-family="Times,serif" font-size="14.00">1/2</text>
</g>
<!-- 3&#45;&gt;4 -->
<g id="edge8" class="edge">
<title>3&#45;&gt;4</title>
<path fill="none" stroke="black" d="M103.6,-260.88C104.64,-231 106.8,-169.11 108.05,-133.27"/>
<polygon fill="black" stroke="black" points="111.55,-133.17 108.41,-123.05 104.56,-132.92 111.55,-133.17"/>
<text text-anchor="middle" x="117.5" y="-188.3" font-family="Times,serif" font-size="14.00">5/5</text>
</g>
<!-- 4&#45;&gt;5 -->
<g id="edge10" class="edge">
<title>4&#45;&gt;5</title>
<path fill="none" stroke="black" d="M96.49,-88.8C85.73,-75.75 70.08,-56.74 57.82,-41.85"/>
<polygon fill="black" stroke="black" points="60.47,-39.56 51.41,-34.06 55.06,-44.01 60.47,-39.56"/>
<text text-anchor="middle" x="98.5" y="-57.8" font-family="Times,serif" font-size="14.00">14/14</text>
</g>
</g>
</svg>
