<?xml version="1.0" encoding="UTF-8" standalone="no"?>
<!DOCTYPE svg PUBLIC "-//W3C//DTD SVG 1.1//EN"
 "http://www.w3.org/Graphics/SVG/1.1/DTD/svg11.dtd">
<!-- Generated by graphviz version 2.42.3 (20191010.1750)
 -->
<!-- Title: %3 Pages: 1 -->
<svg width="117pt" height="305pt"
 viewBox="0.00 0.00 117.00 305.00" xmlns="http://www.w3.org/2000/svg" xmlns:xlink="http://www.w3.org/1999/xlink">
<g id="graph0" class="graph" transform="scale(1 1) rotate(0) translate(4 301)">
<title>%3</title>
<polygon fill="white" stroke="transparent" points="-4,4 -4,-301 113,-301 113,4 -4,4"/>
<!-- 0 -->
<g id="node1" class="node">
<title>0</title>
<ellipse fill="none" stroke="black" cx="74" cy="-279" rx="27" ry="18"/>
<text text-anchor="middle" x="74" y="-275.3" font-family="Times,serif" font-size="14.00">0</text>
</g>
<!-- 1 -->
<g id="node2" class="node">
<title>1</title>
<ellipse fill="none" stroke="black" cx="27" cy="-192" rx="27" ry="18"/>
<text text-anchor="middle" x="27" y="-188.3" font-family="Times,serif" font-size="14.00">1</text>
</g>
<!-- 0&#45;&gt;1 -->
<g id="edge5" class="edge">
<title>0&#45;&gt;1</title>
<path fill="none" stroke="black" d="M64.94,-261.61C58.13,-249.3 48.69,-232.23 40.93,-218.19"/>
<polygon fill="black" stroke="black" points="43.78,-216.11 35.87,-209.05 37.65,-219.5 43.78,-216.11"/>
<text text-anchor="middle" x="59" y="-231.8" font-family="Times,serif" font-size="14.00">2</text>
</g>
<!-- 2 -->
<g id="node3" class="node">
<title>2</title>
<ellipse fill="none" stroke="black" cx="82" cy="-105" rx="27" ry="18"/>
<text text-anchor="middle" x="82" y="-101.3" font-family="Times,serif" font-size="14.00">2</text>
</g>
<!-- 0&#45;&gt;2 -->
<g id="edge4" class="edge">
<title>0&#45;&gt;2</title>
<path fill="none" stroke="black" d="M74.8,-260.88C76.19,-231 79.06,-169.11 80.73,-133.27"/>
<polygon fill="black" stroke="black" points="84.24,-133.2 81.21,-123.05 77.25,-132.88 84.24,-133.2"/>
<text text-anchor="middle" x="83" y="-188.3" font-family="Times,serif" font-size="14.00">4</text>
</g>
<!-- 1&#45;&gt;2 -->
<g id="edge2" class="edge">
<title>1&#45;&gt;2</title>
<path fill="none" stroke="black" d="M37.35,-175.01C45.49,-162.43 56.97,-144.68 66.26,-130.33"/>
<polygon fill="black" stroke="black" points="69.21,-132.21 71.7,-121.92 63.33,-128.41 69.21,-132.21"/>
<text text-anchor="middle" x="63" y="-144.8" font-family="Times,serif" font-size="14.00">3</text>
</g>
<!-- 3 -->
<g id="node4" class="node">
<title>3</title>
<ellipse fill="none" stroke="black" cx="43" cy="-18" rx="27" ry="18"/>
<text text-anchor="middle" x="43" y="-14.3" font-family="Times,serif" font-size="14.00">3</text>
</g>
<!-- 1&#45;&gt;3 -->
<g id="edge1" class="edge">
<title>1&#45;&gt;3</title>
<path fill="none" stroke="black" d="M28.41,-173.69C30.11,-153.05 33.11,-117.49 36,-87 37.27,-73.57 38.8,-58.65 40.1,-46.22"/>
<polygon fill="black" stroke="black" points="43.6,-46.35 41.17,-36.04 36.64,-45.62 43.6,-46.35"/>
<text text-anchor="middle" x="41" y="-101.3" font-family="Times,serif" font-size="14.00">1</text>
</g>
<!-- 2&#45;&gt;3 -->
<g id="edge3" class="edge">
<title>2&#45;&gt;3</title>
<path fill="none" stroke="black" d="M74.48,-87.61C68.87,-75.38 61.1,-58.44 54.68,-44.46"/>
<polygon fill="black" stroke="black" points="57.85,-42.97 50.5,-35.34 51.49,-45.89 57.85,-42.97"/>
<text text-anchor="middle" x="70" y="-57.8" font-family="Times,serif" font-size="14.00">5</text>
</g>
</g>
</svg>
