<?xml version="1.0" encoding="UTF-8" standalone="no"?>
<!DOCTYPE svg PUBLIC "-//W3C//DTD SVG 1.1//EN"
 "http://www.w3.org/Graphics/SVG/1.1/DTD/svg11.dtd">
<!-- Generated by graphviz version 2.42.3 (20191010.1750)
 -->
<!-- Title: %3 Pages: 1 -->
<svg width="394pt" height="131pt"
 viewBox="0.00 0.00 394.00 131.00" xmlns="http://www.w3.org/2000/svg" xmlns:xlink="http://www.w3.org/1999/xlink">
<g id="graph0" class="graph" transform="scale(1 1) rotate(0) translate(4 127)">
<title>%3</title>
<polygon fill="white" stroke="transparent" points="-4,4 -4,-127 390,-127 390,4 -4,4"/>
<!-- 1 -->
<g id="node1" class="node">
<title>1</title>
<ellipse fill="none" stroke="black" cx="215" cy="-105" rx="27" ry="18"/>
<text text-anchor="middle" x="215" y="-101.3" font-family="Times,serif" font-size="14.00">1</text>
</g>
<!-- 50 -->
<g id="node5" class="node">
<title>50</title>
<ellipse fill="none" stroke="black" cx="171" cy="-18" rx="27" ry="18"/>
<text text-anchor="middle" x="171" y="-14.3" font-family="Times,serif" font-size="14.00">50</text>
</g>
<!-- 1&#45;&gt;50 -->
<g id="edge10" class="edge">
<title>1&#45;&gt;50</title>
<path fill="none" stroke="black" d="M197.74,-90.68C191.2,-84.74 184.3,-77.22 180,-69 176.35,-62.01 174.15,-53.81 172.83,-46.09"/>
<polygon fill="black" stroke="black" points="176.29,-45.5 171.53,-36.03 169.34,-46.4 176.29,-45.5"/>
<text text-anchor="middle" x="183.5" y="-57.8" font-family="Times,serif" font-size="14.00">1</text>
</g>
<!-- 51 -->
<g id="node6" class="node">
<title>51</title>
<ellipse fill="none" stroke="black" cx="322" cy="-18" rx="27" ry="18"/>
<text text-anchor="middle" x="322" y="-14.3" font-family="Times,serif" font-size="14.00">51</text>
</g>
<!-- 1&#45;&gt;51 -->
<g id="edge9" class="edge">
<title>1&#45;&gt;51</title>
<path fill="none" stroke="black" d="M236.74,-93.92C249.16,-87.65 264.66,-78.9 277,-69 286.63,-61.28 295.97,-51.42 303.63,-42.49"/>
<polygon fill="black" stroke="black" points="306.45,-44.58 310.14,-34.65 301.06,-40.1 306.45,-44.58"/>
<text text-anchor="middle" x="294.5" y="-57.8" font-family="Times,serif" font-size="14.00">1</text>
</g>
<!-- 2 -->
<g id="node2" class="node">
<title>2</title>
<ellipse fill="none" stroke="black" cx="143" cy="-105" rx="27" ry="18"/>
<text text-anchor="middle" x="143" y="-101.3" font-family="Times,serif" font-size="14.00">2</text>
</g>
<!-- 2&#45;&gt;50 -->
<g id="edge8" class="edge">
<title>2&#45;&gt;50</title>
<path fill="none" stroke="black" d="M142.7,-86.89C143.02,-77.03 144.27,-64.53 148,-54 149.35,-50.18 151.21,-46.36 153.29,-42.72"/>
<polygon fill="black" stroke="black" points="156.31,-44.48 158.73,-34.17 150.41,-40.72 156.31,-44.48"/>
<text text-anchor="middle" x="151.5" y="-57.8" font-family="Times,serif" font-size="14.00">1</text>
</g>
<!-- 2&#45;&gt;51 -->
<g id="edge7" class="edge">
<title>2&#45;&gt;51</title>
<path fill="none" stroke="black" d="M164.05,-93.28C168.89,-91.03 174.07,-88.8 179,-87 208.37,-76.28 218.5,-81.84 247,-69 252.25,-66.63 276.26,-50.45 295.73,-37.13"/>
<polygon fill="black" stroke="black" points="297.73,-40 303.99,-31.46 293.76,-34.23 297.73,-40"/>
<text text-anchor="middle" x="272.5" y="-57.8" font-family="Times,serif" font-size="14.00">1</text>
</g>
<!-- 52 -->
<g id="node7" class="node">
<title>52</title>
<ellipse fill="none" stroke="black" cx="99" cy="-18" rx="27" ry="18"/>
<text text-anchor="middle" x="99" y="-14.3" font-family="Times,serif" font-size="14.00">52</text>
</g>
<!-- 2&#45;&gt;52 -->
<g id="edge6" class="edge">
<title>2&#45;&gt;52</title>
<path fill="none" stroke="black" d="M134.52,-87.61C128.19,-75.38 119.42,-58.44 112.18,-44.46"/>
<polygon fill="black" stroke="black" points="115.16,-42.61 107.46,-35.34 108.95,-45.83 115.16,-42.61"/>
<text text-anchor="middle" x="126.5" y="-57.8" font-family="Times,serif" font-size="14.00">1</text>
</g>
<!-- 53 -->
<g id="node8" class="node">
<title>53</title>
<ellipse fill="none" stroke="black" cx="27" cy="-18" rx="27" ry="18"/>
<text text-anchor="middle" x="27" y="-14.3" font-family="Times,serif" font-size="14.00">53</text>
</g>
<!-- 2&#45;&gt;53 -->
<g id="edge5" class="edge">
<title>2&#45;&gt;53</title>
<path fill="none" stroke="black" d="M125.38,-91.09C106.13,-76.99 75.11,-54.25 53.05,-38.09"/>
<polygon fill="black" stroke="black" points="54.92,-35.12 44.78,-32.03 50.78,-40.77 54.92,-35.12"/>
<text text-anchor="middle" x="94.5" y="-57.8" font-family="Times,serif" font-size="14.00">1</text>
</g>
<!-- 54 -->
<g id="node9" class="node">
<title>54</title>
<ellipse fill="none" stroke="black" cx="243" cy="-18" rx="27" ry="18"/>
<text text-anchor="middle" x="243" y="-14.3" font-family="Times,serif" font-size="14.00">54</text>
</g>
<!-- 2&#45;&gt;54 -->
<g id="edge4" class="edge">
<title>2&#45;&gt;54</title>
<path fill="none" stroke="black" d="M159.86,-90.51C167.84,-84.07 177.47,-76.21 186,-69 197.11,-59.61 209.24,-49.02 219.45,-40"/>
<polygon fill="black" stroke="black" points="222,-42.42 227.17,-33.17 217.36,-37.18 222,-42.42"/>
<text text-anchor="middle" x="206.5" y="-57.8" font-family="Times,serif" font-size="14.00">1</text>
</g>
<!-- 3 -->
<g id="node3" class="node">
<title>3</title>
<ellipse fill="none" stroke="black" cx="359" cy="-105" rx="27" ry="18"/>
<text text-anchor="middle" x="359" y="-101.3" font-family="Times,serif" font-size="14.00">3</text>
</g>
<!-- 3&#45;&gt;51 -->
<g id="edge3" class="edge">
<title>3&#45;&gt;51</title>
<path fill="none" stroke="black" d="M351.87,-87.61C346.63,-75.58 339.4,-58.98 333.37,-45.13"/>
<polygon fill="black" stroke="black" points="336.44,-43.4 329.24,-35.63 330.02,-46.19 336.44,-43.4"/>
<text text-anchor="middle" x="345.5" y="-57.8" font-family="Times,serif" font-size="14.00">1</text>
</g>
<!-- 4 -->
<g id="node4" class="node">
<title>4</title>
<ellipse fill="none" stroke="black" cx="287" cy="-105" rx="27" ry="18"/>
<text text-anchor="middle" x="287" y="-101.3" font-family="Times,serif" font-size="14.00">4</text>
</g>
<!-- 4&#45;&gt;51 -->
<g id="edge2" class="edge">
<title>4&#45;&gt;51</title>
<path fill="none" stroke="black" d="M297.15,-88.01C300.59,-82.18 304.24,-75.43 307,-69 310.14,-61.67 312.9,-53.47 315.16,-45.87"/>
<polygon fill="black" stroke="black" points="318.6,-46.58 317.93,-36 311.86,-44.69 318.6,-46.58"/>
<text text-anchor="middle" x="315.5" y="-57.8" font-family="Times,serif" font-size="14.00">1</text>
</g>
<!-- 4&#45;&gt;54 -->
<g id="edge1" class="edge">
<title>4&#45;&gt;54</title>
<path fill="none" stroke="black" d="M265.87,-93.3C256.76,-87.47 247.04,-79.31 242,-69 238.59,-62.03 237.68,-53.83 237.95,-46.11"/>
<polygon fill="black" stroke="black" points="241.44,-46.33 238.91,-36.05 234.47,-45.67 241.44,-46.33"/>
<text text-anchor="middle" x="245.5" y="-57.8" font-family="Times,serif" font-size="14.00">1</text>
</g>
</g>
</svg>
