<?xml version="1.0" encoding="UTF-8" standalone="no"?>
<!DOCTYPE svg PUBLIC "-//W3C//DTD SVG 1.1//EN"
 "http://www.w3.org/Graphics/SVG/1.1/DTD/svg11.dtd">
<!-- Generated by graphviz version 2.42.3 (20191010.1750)
 -->
<!-- Title: %3 Pages: 1 -->
<svg width="451pt" height="305pt"
 viewBox="0.00 0.00 451.00 305.00" xmlns="http://www.w3.org/2000/svg" xmlns:xlink="http://www.w3.org/1999/xlink">
<g id="graph0" class="graph" transform="scale(1 1) rotate(0) translate(4 301)">
<title>%3</title>
<polygon fill="white" stroke="transparent" points="-4,4 -4,-301 447,-301 447,4 -4,4"/>
<!-- 0 -->
<g id="node1" class="node">
<title>0</title>
<ellipse fill="none" stroke="black" cx="306" cy="-279" rx="27" ry="18"/>
<text text-anchor="middle" x="306" y="-275.3" font-family="Times,serif" font-size="14.00">0</text>
</g>
<!-- 1 -->
<g id="node2" class="node">
<title>1</title>
<ellipse fill="none" stroke="black" cx="270" cy="-192" rx="27" ry="18"/>
<text text-anchor="middle" x="270" y="-188.3" font-family="Times,serif" font-size="14.00">1</text>
</g>
<!-- 0&#45;&gt;1 -->
<g id="edge1" class="edge">
<title>0&#45;&gt;1</title>
<path fill="none" stroke="black" d="M298.89,-261.21C293.78,-249.14 286.79,-232.64 280.97,-218.89"/>
<polygon fill="black" stroke="black" points="284.1,-217.31 276.98,-209.47 277.65,-220.04 284.1,-217.31"/>
<text text-anchor="middle" x="299" y="-231.8" font-family="Times,serif" font-size="14.00">1/1</text>
</g>
<!-- 2 -->
<g id="node3" class="node">
<title>2</title>
<ellipse fill="none" stroke="black" cx="153" cy="-192" rx="27" ry="18"/>
<text text-anchor="middle" x="153" y="-188.3" font-family="Times,serif" font-size="14.00">2</text>
</g>
<!-- 0&#45;&gt;2 -->
<g id="edge2" class="edge">
<title>0&#45;&gt;2</title>
<path fill="none" stroke="black" d="M286,-266.89C259.42,-252.12 212.3,-225.95 181.87,-209.04"/>
<polygon fill="black" stroke="black" points="183.45,-205.91 173.01,-204.11 180.05,-212.03 183.45,-205.91"/>
<text text-anchor="middle" x="248" y="-231.8" font-family="Times,serif" font-size="14.00">1/1</text>
</g>
<!-- 3 -->
<g id="node4" class="node">
<title>3</title>
<ellipse fill="none" stroke="black" cx="416" cy="-192" rx="27" ry="18"/>
<text text-anchor="middle" x="416" y="-188.3" font-family="Times,serif" font-size="14.00">3</text>
</g>
<!-- 0&#45;&gt;3 -->
<g id="edge3" class="edge">
<title>0&#45;&gt;3</title>
<path fill="none" stroke="black" d="M323.19,-264.72C341.35,-250.68 370.18,-228.41 390.88,-212.41"/>
<polygon fill="black" stroke="black" points="393.16,-215.07 398.93,-206.19 388.88,-209.53 393.16,-215.07"/>
<text text-anchor="middle" x="376" y="-231.8" font-family="Times,serif" font-size="14.00">1/1</text>
</g>
<!-- 4 -->
<g id="node5" class="node">
<title>4</title>
<ellipse fill="none" stroke="black" cx="342" cy="-192" rx="27" ry="18"/>
<text text-anchor="middle" x="342" y="-188.3" font-family="Times,serif" font-size="14.00">4</text>
</g>
<!-- 0&#45;&gt;4 -->
<g id="edge4" class="edge">
<title>0&#45;&gt;4</title>
<path fill="none" stroke="black" d="M313.11,-261.21C318.22,-249.14 325.21,-232.64 331.03,-218.89"/>
<polygon fill="black" stroke="black" points="334.35,-220.04 335.02,-209.47 327.9,-217.31 334.35,-220.04"/>
<text text-anchor="middle" x="335" y="-231.8" font-family="Times,serif" font-size="14.00">1/1</text>
</g>
<!-- 50 -->
<g id="node6" class="node">
<title>50</title>
<ellipse fill="none" stroke="black" cx="171" cy="-105" rx="27" ry="18"/>
<text text-anchor="middle" x="171" y="-101.3" font-family="Times,serif" font-size="14.00">50</text>
</g>
<!-- 1&#45;&gt;50 -->
<g id="edge5" class="edge">
<title>1&#45;&gt;50</title>
<path fill="none" stroke="black" d="M249.72,-179.96C238.9,-173.62 225.66,-165.13 215,-156 205.72,-148.06 196.6,-138.15 189.1,-129.26"/>
<polygon fill="black" stroke="black" points="191.75,-126.97 182.7,-121.46 186.34,-131.41 191.75,-126.97"/>
<text text-anchor="middle" x="224" y="-144.8" font-family="Times,serif" font-size="14.00">1/1</text>
</g>
<!-- 51 -->
<g id="node7" class="node">
<title>51</title>
<ellipse fill="none" stroke="black" cx="315" cy="-105" rx="27" ry="18"/>
<text text-anchor="middle" x="315" y="-101.3" font-family="Times,serif" font-size="14.00">51</text>
</g>
<!-- 1&#45;&gt;51 -->
<g id="edge6" class="edge">
<title>1&#45;&gt;51</title>
<path fill="none" stroke="black" d="M278.68,-174.61C285.15,-162.38 294.12,-145.44 301.52,-131.46"/>
<polygon fill="black" stroke="black" points="304.76,-132.81 306.35,-122.34 298.58,-129.54 304.76,-132.81"/>
<text text-anchor="middle" x="304" y="-144.8" font-family="Times,serif" font-size="14.00">0/1</text>
</g>
<!-- 2&#45;&gt;50 -->
<g id="edge8" class="edge">
<title>2&#45;&gt;50</title>
<path fill="none" stroke="black" d="M140.57,-176.02C133.86,-166.03 127.89,-152.64 133,-141 135.65,-134.96 139.91,-129.51 144.63,-124.8"/>
<polygon fill="black" stroke="black" points="147.11,-127.28 152.29,-118.03 142.48,-122.03 147.11,-127.28"/>
<text text-anchor="middle" x="142" y="-144.8" font-family="Times,serif" font-size="14.00">0/1</text>
</g>
<!-- 2&#45;&gt;51 -->
<g id="edge10" class="edge">
<title>2&#45;&gt;51</title>
<path fill="none" stroke="black" d="M175.8,-181.99C192.01,-175.35 214.17,-165.8 233,-156 251.79,-146.22 272.13,-133.83 287.85,-123.83"/>
<polygon fill="black" stroke="black" points="290,-126.61 296.53,-118.26 286.22,-120.72 290,-126.61"/>
<text text-anchor="middle" x="268" y="-144.8" font-family="Times,serif" font-size="14.00">0/1</text>
</g>
<!-- 52 -->
<g id="node8" class="node">
<title>52</title>
<ellipse fill="none" stroke="black" cx="99" cy="-105" rx="27" ry="18"/>
<text text-anchor="middle" x="99" y="-101.3" font-family="Times,serif" font-size="14.00">52</text>
</g>
<!-- 2&#45;&gt;52 -->
<g id="edge9" class="edge">
<title>2&#45;&gt;52</title>
<path fill="none" stroke="black" d="M133.3,-179.26C124.91,-173.31 115.75,-165.34 110,-156 105.83,-149.24 103.24,-141.1 101.62,-133.38"/>
<polygon fill="black" stroke="black" points="105.03,-132.57 99.97,-123.26 98.13,-133.7 105.03,-132.57"/>
<text text-anchor="middle" x="119" y="-144.8" font-family="Times,serif" font-size="14.00">1/1</text>
</g>
<!-- 53 -->
<g id="node9" class="node">
<title>53</title>
<ellipse fill="none" stroke="black" cx="27" cy="-105" rx="27" ry="18"/>
<text text-anchor="middle" x="27" y="-101.3" font-family="Times,serif" font-size="14.00">53</text>
</g>
<!-- 2&#45;&gt;53 -->
<g id="edge11" class="edge">
<title>2&#45;&gt;53</title>
<path fill="none" stroke="black" d="M130.36,-181.79C115.96,-175.47 97.22,-166.37 82,-156 70.05,-147.86 58.02,-137.27 48.28,-127.93"/>
<polygon fill="black" stroke="black" points="50.58,-125.29 41,-120.78 45.68,-130.28 50.58,-125.29"/>
<text text-anchor="middle" x="91" y="-144.8" font-family="Times,serif" font-size="14.00">0/1</text>
</g>
<!-- 54 -->
<g id="node10" class="node">
<title>54</title>
<ellipse fill="none" stroke="black" cx="243" cy="-105" rx="27" ry="18"/>
<text text-anchor="middle" x="243" y="-101.3" font-family="Times,serif" font-size="14.00">54</text>
</g>
<!-- 2&#45;&gt;54 -->
<g id="edge12" class="edge">
<title>2&#45;&gt;54</title>
<path fill="none" stroke="black" d="M156.91,-174.05C160.05,-163.5 165.4,-150.24 174,-141 175.55,-139.34 194.76,-129.64 212.52,-120.88"/>
<polygon fill="black" stroke="black" points="214.14,-123.98 221.57,-116.43 211.05,-117.7 214.14,-123.98"/>
<text text-anchor="middle" x="183" y="-144.8" font-family="Times,serif" font-size="14.00">0/1</text>
</g>
<!-- 3&#45;&gt;51 -->
<g id="edge14" class="edge">
<title>3&#45;&gt;51</title>
<path fill="none" stroke="black" d="M406.89,-174.67C400.41,-164.11 390.93,-150.6 380,-141 370.22,-132.41 357.97,-125.13 346.74,-119.47"/>
<polygon fill="black" stroke="black" points="348.17,-116.27 337.64,-115.1 345.14,-122.58 348.17,-116.27"/>
<text text-anchor="middle" x="402" y="-144.8" font-family="Times,serif" font-size="14.00">1/1</text>
</g>
<!-- 4&#45;&gt;51 -->
<g id="edge16" class="edge">
<title>4&#45;&gt;51</title>
<path fill="none" stroke="black" d="M351.95,-175.23C356.99,-165.15 361.06,-151.97 356,-141 353,-134.49 348.12,-128.74 342.76,-123.88"/>
<polygon fill="black" stroke="black" points="344.71,-120.96 334.73,-117.42 340.32,-126.41 344.71,-120.96"/>
<text text-anchor="middle" x="367" y="-144.8" font-family="Times,serif" font-size="14.00">0/1</text>
</g>
<!-- 4&#45;&gt;54 -->
<g id="edge17" class="edge">
<title>4&#45;&gt;54</title>
<path fill="none" stroke="black" d="M335.95,-173.99C331.5,-163.42 324.54,-150.15 315,-141 314.13,-140.16 292.91,-129.89 273.73,-120.68"/>
<polygon fill="black" stroke="black" points="275.11,-117.46 264.58,-116.3 272.09,-123.78 275.11,-117.46"/>
<text text-anchor="middle" x="335" y="-144.8" font-family="Times,serif" font-size="14.00">1/1</text>
</g>
<!-- 100 -->
<g id="node11" class="node">
<title>100</title>
<ellipse fill="none" stroke="black" cx="171" cy="-18" rx="27" ry="18"/>
<text text-anchor="middle" x="171" y="-14.3" font-family="Times,serif" font-size="14.00">100</text>
</g>
<!-- 50&#45;&gt;100 -->
<g id="edge7" class="edge">
<title>50&#45;&gt;100</title>
<path fill="none" stroke="black" d="M171,-86.8C171,-75.16 171,-59.55 171,-46.24"/>
<polygon fill="black" stroke="black" points="174.5,-46.18 171,-36.18 167.5,-46.18 174.5,-46.18"/>
<text text-anchor="middle" x="180" y="-57.8" font-family="Times,serif" font-size="14.00">1/1</text>
</g>
<!-- 51&#45;&gt;100 -->
<g id="edge15" class="edge">
<title>51&#45;&gt;100</title>
<path fill="none" stroke="black" d="M296.16,-92.03C279.84,-81.75 255.53,-66.62 234,-54 223.06,-47.59 210.91,-40.77 200.23,-34.87"/>
<polygon fill="black" stroke="black" points="201.73,-31.7 191.28,-29.96 198.36,-37.84 201.73,-31.7"/>
<text text-anchor="middle" x="268" y="-57.8" font-family="Times,serif" font-size="14.00">1/1</text>
</g>
<!-- 52&#45;&gt;100 -->
<g id="edge13" class="edge">
<title>52&#45;&gt;100</title>
<path fill="none" stroke="black" d="M111.87,-88.8C122.93,-75.75 139.04,-56.74 151.65,-41.85"/>
<polygon fill="black" stroke="black" points="154.45,-43.96 158.24,-34.06 149.11,-39.43 154.45,-43.96"/>
<text text-anchor="middle" x="149" y="-57.8" font-family="Times,serif" font-size="14.00">1/1</text>
</g>
<!-- 53&#45;&gt;100 -->
<g id="edge19" class="edge">
<title>53&#45;&gt;100</title>
<path fill="none" stroke="black" d="M46.11,-92.1C62.66,-81.85 87.29,-66.74 109,-54 119.72,-47.71 131.58,-40.96 142.04,-35.08"/>
<polygon fill="black" stroke="black" points="143.78,-38.12 150.8,-30.18 140.36,-32.01 143.78,-38.12"/>
<text text-anchor="middle" x="118" y="-57.8" font-family="Times,serif" font-size="14.00">0/1</text>
</g>
<!-- 54&#45;&gt;100 -->
<g id="edge18" class="edge">
<title>54&#45;&gt;100</title>
<path fill="none" stroke="black" d="M230.13,-88.8C219.07,-75.75 202.96,-56.74 190.35,-41.85"/>
<polygon fill="black" stroke="black" points="192.89,-39.43 183.76,-34.06 187.55,-43.96 192.89,-39.43"/>
<text text-anchor="middle" x="221" y="-57.8" font-family="Times,serif" font-size="14.00">1/1</text>
</g>
</g>
</svg>
